<svg width="32" height="32" viewBox="0 0 32 32" fill="none" xmlns="http://www.w3.org/2000/svg">
<path d="M0 10.6667V9.33333C0 5.65733 2.99067 2.66667 6.66667 2.66667H8V1.33333C8 0.597333 8.596 0 9.33333 0C10.0707 0 10.6667 0.597333 10.6667 1.33333V2.66667H21.3333V1.33333C21.3333 0.597333 21.9293 0 22.6667 0C23.404 0 24 0.597333 24 1.33333V2.66667H25.3333C29.0093 2.66667 32 5.65733 32 9.33333V10.6667H0ZM32 13.3333V25.3333C32 29.0093 29.0093 32 25.3333 32H6.66667C2.99067 32 0 29.0093 0 25.3333V13.3333H32ZM16 25.3333C16 24.5973 15.404 24 14.6667 24H8C7.26267 24 6.66667 24.5973 6.66667 25.3333C6.66667 26.0693 7.26267 26.6667 8 26.6667H14.6667C15.404 26.6667 16 26.0693 16 25.3333ZM25.3333 20C25.3333 19.264 24.7373 18.6667 24 18.6667H8C7.26267 18.6667 6.66667 19.264 6.66667 20C6.66667 20.736 7.26267 21.3333 8 21.3333H24C24.7373 21.3333 25.3333 20.736 25.3333 20Z" fill="white"/>
</svg>
