<svg width="32" height="32" viewBox="0 0 32 32" fill="none" xmlns="http://www.w3.org/2000/svg">
<path d="M25.3333 0H6.66667C2.99067 0 0 2.99067 0 6.66667V25.3333C0 29.0093 2.99067 32 6.66667 32H25.3333C29.0093 32 32 29.0093 32 25.3333V6.66667C32 2.99067 29.0093 0 25.3333 0ZM14.6667 17.3333C14.6667 20.2747 12.2747 22.6667 9.33333 22.6667C8.596 22.6667 8 22.0707 8 21.3333C8 20.596 8.596 20 9.33333 20C10.804 20 12 18.804 12 17.3333H10C8.896 17.3333 8 16.4373 8 15.3333V13.3333C8 11.86 9.19333 10.6667 10.6667 10.6667H12.6667C13.7707 10.6667 14.6667 11.5627 14.6667 12.6667V17.3333ZM24 17.3333C24 20.2747 21.608 22.6667 18.6667 22.6667C17.9293 22.6667 17.3333 22.0707 17.3333 21.3333C17.3333 20.596 17.9293 20 18.6667 20C20.1373 20 21.3333 18.804 21.3333 17.3333H19.3333C18.2293 17.3333 17.3333 16.4373 17.3333 15.3333V13.3333C17.3333 11.86 18.5267 10.6667 20 10.6667H22C23.104 10.6667 24 11.5627 24 12.6667V17.3333Z" fill="white"/>
</svg>
