<svg width="32" height="32" viewBox="0 0 32 32" fill="none" xmlns="http://www.w3.org/2000/svg">
<path d="M17.3333 0H6.66667C2.99067 0 0 2.99017 0 6.66556V23.8014C0 24.8585 0.58 25.8264 1.512 26.3263C1.936 26.5542 2.40133 26.6662 2.86533 26.6662C3.42 26.6662 3.97333 26.5049 4.45333 26.1863L9.73733 22.6629H17.3333C21.0093 22.6629 24 19.6727 24 15.9973V6.66556C24 2.99017 21.0093 0 17.3333 0ZM32 11.998V29.1338C32 30.191 31.42 31.1588 30.488 31.6587C30.064 31.8867 29.5987 31.9987 29.1347 32C28.58 32 28.0267 31.8387 27.548 31.5201L22.2627 27.9953H14.6667C12.7333 27.9953 11.004 27.1541 9.78533 25.8357L10.544 25.3291H17.3333C22.4787 25.3291 26.6667 21.1418 26.6667 15.9973V6.66556C26.6667 6.25496 26.6307 5.85502 26.58 5.45776C29.6613 6.04433 32 8.74921 32 11.998Z" fill="white"/>
</svg>
