<svg width="32" height="32" viewBox="0 0 32 32" fill="none" xmlns="http://www.w3.org/2000/svg">
<path d="M31.724 24C31.412 25.0493 30.8427 26.0107 30.0467 26.8067L26.8067 30.0467C26.0107 30.8427 25.048 31.412 23.9987 31.724V25.3333C23.9987 24.5973 24.5973 24 25.332 24H31.724ZM32 6.66667V21.3333H25.3333C23.128 21.3333 21.3333 23.128 21.3333 25.3333V32H6.66667C2.99067 32 0 29.0093 0 25.3333V6.66667C0 2.99067 2.99067 0 6.66667 0H25.3333C29.0093 0 32 2.99067 32 6.66667ZM9.33333 23.3333C9.33333 22.2293 8.43733 21.3333 7.33333 21.3333C6.22933 21.3333 5.33333 22.2293 5.33333 23.3333C5.33333 24.4373 6.22933 25.3333 7.33333 25.3333C8.43733 25.3333 9.33333 24.4373 9.33333 23.3333ZM9.33333 16C9.33333 14.896 8.43733 14 7.33333 14C6.22933 14 5.33333 14.896 5.33333 16C5.33333 17.104 6.22933 18 7.33333 18C8.43733 18 9.33333 17.104 9.33333 16ZM9.33333 8.66667C9.33333 7.56267 8.43733 6.66667 7.33333 6.66667C6.22933 6.66667 5.33333 7.56267 5.33333 8.66667C5.33333 9.77067 6.22933 10.6667 7.33333 10.6667C8.43733 10.6667 9.33333 9.77067 9.33333 8.66667Z" fill="white"/>
</svg>
