<svg width="34" height="34" viewBox="0 0 34 34" fill="none" xmlns="http://www.w3.org/2000/svg">
<circle cx="16.8056" cy="10.164" r="6.54776" stroke="#0A0A0A" stroke-width="1.5"/>
<path d="M7.98438 15.7898C6.42353 15.7898 5.15822 13.9026 5.15822 11.5746C5.15822 9.24665 6.42353 7.35945 7.98438 7.35945" stroke="#0A0A0A" stroke-width="1.5" stroke-linecap="round"/>
<path d="M25.6094 15.7898C27.1983 15.7898 28.4864 13.9026 28.4864 11.5746C28.4864 9.24665 27.1983 7.35945 25.6094 7.35945" stroke="#0A0A0A" stroke-width="1.5" stroke-linecap="round"/>
<path d="M24.8627 25.2524C24.8627 27.3099 24.3444 28.6776 23.2149 29.5709C22.039 30.5009 20.0485 31.0448 16.7985 31.0448C13.1736 31.0448 11.2099 30.4929 10.1369 29.5863C9.10965 28.7185 8.73438 27.3775 8.73438 25.2524C8.73438 23.3346 9.58568 21.9243 10.9892 20.9648C12.4222 19.9852 14.4629 19.46 16.7985 19.46C19.1342 19.46 21.1749 19.9852 22.6078 20.9648C24.0114 21.9243 24.8627 23.3346 24.8627 25.2524Z" stroke="#0A0A0A" stroke-width="1.5"/>
<path d="M28.1402 28.3356C28.8351 28.3356 29.8774 26.8034 29.8774 24.9648C29.8774 23.1262 28.8351 21.594 27.4453 21.0322" stroke="#0A0A0A" stroke-width="1.5" stroke-linecap="round"/>
<path d="M5.45355 28.3356C4.75866 28.3356 3.71633 26.8034 3.71633 24.9648C3.71633 23.1262 4.75866 21.594 6.14844 21.0322" stroke="#0A0A0A" stroke-width="1.5" stroke-linecap="round"/>
</svg>
