<svg width="34" height="34" viewBox="0 0 34 34" fill="none" xmlns="http://www.w3.org/2000/svg">
<path d="M15.9372 3.86154V3.86154C10.2285 3.86154 7.37409 3.86154 5.61673 5.6189C3.85938 7.37626 3.85938 10.2047 3.85938 15.8615V17.7384C3.85938 23.3953 3.85938 26.2237 5.61673 27.9811C7.37409 29.7384 10.2025 29.7384 15.8594 29.7384H17.8246C23.3955 29.7384 26.181 29.7384 27.9296 28.0299C27.9626 27.9975 27.9954 27.9648 28.0277 27.9317C29.7363 26.1832 29.7363 23.3977 29.7363 17.8268V17.8268" stroke="#0A0A0A" stroke-width="1.5" stroke-linecap="round"/>
<path d="M12.1016 17.6587L12.1016 19.5009C12.1016 20.4437 12.1016 20.9151 12.3945 21.208C12.6874 21.5009 13.1588 21.5009 14.1016 21.5009H15.801C16.2158 21.5009 16.4233 21.5009 16.6092 21.4227C16.7952 21.3445 16.9402 21.1963 17.2304 20.8998L28.8174 9.05959L28.8174 9.05958C29.4384 8.42505 29.7489 8.10778 29.7575 7.71271C29.7662 7.31764 29.4699 6.98707 28.8774 6.32591L28.0669 5.42162L27.1525 4.61226C26.4895 4.02541 26.1581 3.73199 25.7639 3.74249C25.3697 3.75298 25.0543 4.06364 24.4235 4.68495L12.6981 16.2338C12.4039 16.5236 12.2567 16.6685 12.1791 16.8538C12.1016 17.0391 12.1016 17.2456 12.1016 17.6587L12.1016 17.6587Z" stroke="#0A0A0A" stroke-width="1.5" stroke-linecap="round"/>
<path d="M21.1719 8.16457L25.3579 12.3506" stroke="#0A0A0A" stroke-width="1.5" stroke-linecap="round"/>
</svg>
