<svg width="34" height="34" viewBox="0 0 34 34" fill="none" xmlns="http://www.w3.org/2000/svg">
<path d="M22.2138 9.53736C22.2138 12.8497 19.5286 15.5349 16.2163 15.5349C12.9039 15.5349 10.2188 12.8497 10.2188 9.53736C10.2188 6.22501 12.9039 3.53983 16.2163 3.53983C19.5286 3.53983 22.2138 6.22501 22.2138 9.53736Z" stroke="#0A0A0A" stroke-width="1.5"/>
<path d="M16.3686 29.6667C8.10394 29.6667 4.27344 29.6667 4.27344 25.1863C4.27344 20.7059 10.4139 18.6507 16.3686 18.6507C18.8797 18.6507 19.975 18.5982 22.0159 19.3569" stroke="#0A0A0A" stroke-width="1.5" stroke-linecap="round"/>
<path d="M21.1661 26.4243L26.7422 17.8359L30.2597 20.1196L24.4231 29.1095L21.3493 30.3086L21.1661 26.4243Z" stroke="#0A0A0A" stroke-width="1.5" stroke-linejoin="round"/>
</svg>
