<svg width="34" height="34" viewBox="0 0 34 33" fill="none" xmlns="http://www.w3.org/2000/svg">
    <path d="M21.6 31.85H12C9.15037 31.85 7.0886 31.8484 5.51631 31.637C3.96559 31.4285 3.00379 31.0284 2.28769 30.3123C1.57159 29.5962 1.17147 28.6344 0.962982 27.0837C0.751593 25.5114 0.75 23.4496 0.75 20.6V16.8486C0.75 15.263 0.750749 14.1246 0.835505 13.2157C0.918819 12.3221 1.07965 11.705 1.37121 11.1603C1.66277 10.6155 2.087 10.1394 2.78425 9.57439C3.49356 8.99965 4.44032 8.36758 5.75962 7.48805L10.7628 4.15261C12.4211 3.04706 13.615 2.2524 14.6231 1.72977C15.6147 1.2157 16.3635 0.9997 17.1207 1.00682C17.878 1.01394 18.6226 1.24398 19.6044 1.7766C20.6024 2.31809 21.7812 3.13507 23.4184 4.2716L28.0153 7.46262C29.2896 8.34725 30.2039 8.98283 30.8887 9.55749C31.5618 10.1224 31.9711 10.595 32.2519 11.1317C32.5326 11.6684 32.6875 12.2741 32.7677 13.1492C32.8493 14.0394 32.85 15.1529 32.85 16.7042V20.6C32.85 23.4496 32.8484 25.5114 32.637 27.0837C32.4285 28.6344 32.0284 29.5962 31.3123 30.3123C30.5962 31.0284 29.6344 31.4285 28.0837 31.637C26.5114 31.8484 24.4496 31.85 21.6 31.85Z"
          stroke="black" stroke-width="1.5" stroke-linecap="round"/>
</svg>
