<svg width="34" height="34" viewBox="0 0 34 34" fill="none" xmlns="http://www.w3.org/2000/svg">
<mask id="path-1-inside-1_29_185" fill="white">
<path d="M16.8035 29.0893C24.5345 29.0893 30.8016 23.171 30.8016 15.8703C30.8016 8.56966 24.5345 2.65132 16.8035 2.65132C9.07257 2.65132 2.80903 8.56966 2.8054 15.8703C2.80468 17.3092 3.01269 20.8701 5.36591 23.0956C6.01686 23.7113 4.33322 26.8278 3.39082 29.0485C2.95931 30.0654 3.70218 30.9622 4.80309 30.8717C7.68196 30.6349 10.0768 29.8409 12.883 28.275C14.4245 28.8266 15.0574 29.0893 16.8035 29.0893Z"/>
</mask>
<path d="M2.8054 15.8703L1.3054 15.8696L2.8054 15.8703ZM5.36591 23.0956L6.3966 22.0058L6.3966 22.0058L5.36591 23.0956ZM12.883 28.275L13.3884 26.8627C12.9809 26.7169 12.5302 26.7542 12.1521 26.9651L12.883 28.275ZM3.39082 29.0485L4.77164 29.6345L4.77164 29.6345L3.39082 29.0485ZM4.80309 30.8717L4.68013 29.3767L4.68013 29.3767L4.80309 30.8717ZM29.3016 15.8703C29.3016 22.2628 23.7881 27.5893 16.8035 27.5893V30.5893C25.2808 30.5893 32.3016 24.0792 32.3016 15.8703H29.3016ZM4.3054 15.8711C4.30857 9.47737 9.81962 4.15132 16.8035 4.15132V1.15132C8.32553 1.15132 1.30948 7.66195 1.3054 15.8696L4.3054 15.8711ZM16.8035 4.15132C23.7881 4.15132 29.3016 9.47786 29.3016 15.8703H32.3016C32.3016 7.66146 25.2808 1.15132 16.8035 1.15132V4.15132ZM6.3966 22.0058C5.49447 21.1527 4.95964 19.9987 4.65583 18.8151C4.35331 17.6364 4.30507 16.5254 4.3054 15.8711L1.3054 15.8696C1.30501 16.654 1.36041 18.043 1.75002 19.5609C2.13834 21.0738 2.88412 22.8131 4.33522 24.1855L6.3966 22.0058ZM16.8035 27.5893C16.0136 27.5893 15.5396 27.5305 15.1118 27.4293C14.645 27.3189 14.1995 27.153 13.3884 26.8627L12.3777 29.6873C13.108 29.9487 13.7497 30.1899 14.4213 30.3487C15.1318 30.5168 15.8473 30.5893 16.8035 30.5893V27.5893ZM4.33522 24.1855C4.05552 23.9209 4.01848 23.6322 4.01361 23.5821C4.00831 23.5275 4.01909 23.5488 3.99245 23.6847C3.93988 23.953 3.80559 24.3617 3.5848 24.909C3.37023 25.4409 3.10483 26.0297 2.82389 26.6454C2.54862 27.2487 2.25558 27.8839 2.01001 28.4626L4.77164 29.6345C4.99726 29.1028 5.26808 28.5156 5.5532 27.8907C5.83265 27.2783 6.12417 26.6331 6.36694 26.0313C6.6035 25.445 6.82697 24.8203 6.93645 24.2617C6.99083 23.9842 7.03371 23.6436 6.99956 23.2921C6.96585 22.945 6.83903 22.4243 6.3966 22.0058L4.33522 24.1855ZM4.92605 32.3666C8.05279 32.1095 10.6532 31.237 13.6139 29.5849L12.1521 26.9651C9.50034 28.4448 7.31113 29.1603 4.68013 29.3767L4.92605 32.3666ZM2.01001 28.4626C1.59731 29.4351 1.70945 30.5028 2.3466 31.3069C2.9662 32.0889 3.94129 32.4476 4.92605 32.3666L4.68013 29.3767C4.62106 29.3816 4.60284 29.3707 4.6152 29.3756C4.62731 29.3805 4.6621 29.3986 4.69799 29.4439C4.73518 29.4908 4.7584 29.5485 4.76465 29.6024C4.77089 29.6562 4.75649 29.6702 4.77164 29.6345L2.01001 28.4626Z" fill="#0A0A0A" mask="url(#path-1-inside-1_29_185)"/>
<line x1="10.2266" y1="13.4554" x2="17.1554" y2="13.4554" stroke="#0A0A0A" stroke-width="1.5" stroke-linecap="round"/>
<line x1="10.2266" y1="18.6453" x2="23.0319" y2="18.6453" stroke="#0A0A0A" stroke-width="1.5" stroke-linecap="round"/>
</svg>
