<svg width="24" height="24" viewBox="0 0 32 32" fill="none" xmlns="http://www.w3.org/2000/svg">
    <path d="M32 5.33333V26.6667C32 29.608 29.608 32 26.6667 32H22.6667C21.9307 32 21.3333 31.4027 21.3333 30.6667C21.3333 29.9307 21.9307 29.3333 22.6667 29.3333H26.6667C28.1373 29.3333 29.3333 28.1373 29.3333 26.6667V5.33333C29.3333 3.86267 28.1373 2.66667 26.6667 2.66667H22.6667C21.9307 2.66667 21.3333 2.06933 21.3333 1.33333C21.3333 0.597333 21.9307 0 22.6667 0H26.6667C29.608 0 32 2.392 32 5.33333ZM22.6467 19.2667L15.5893 26.296C14.912 26.9747 13.996 27.3333 13.0467 27.3333C12.5547 27.3333 12.0547 27.2373 11.5747 27.0387C10.1973 26.472 9.33867 25.236 9.33333 23.8147V21.3333H4C1.79467 21.3333 0 19.5387 0 17.3333V14.6667C0 12.4613 1.79467 10.6667 4 10.6667H9.33333V8.188C9.34 6.76133 10.1987 5.52533 11.576 4.96C12.9827 4.38267 14.56 4.67333 15.592 5.70533L22.6453 12.728C24.448 14.532 24.4467 17.4627 22.6453 19.2653L22.6467 19.2667Z"
          fill="white"/>
</svg>
