<svg width="34" height="34" viewBox="0 0 34 34" fill="none" xmlns="http://www.w3.org/2000/svg">
<path d="M8.50225 17C8.50225 18.5648 7.2338 19.8333 5.66909 19.8333C4.10438 19.8333 2.83594 18.5648 2.83594 17C2.83594 15.4352 4.10438 14.1667 5.66909 14.1667C7.2338 14.1667 8.50225 15.4352 8.50225 17Z" fill="#0A0A0A"/>
<path d="M19.8349 17C19.8349 18.5648 18.5664 19.8333 17.0017 19.8333C15.437 19.8333 14.1686 18.5648 14.1686 17C14.1686 15.4352 15.437 14.1667 17.0017 14.1667C18.5664 14.1667 19.8349 15.4352 19.8349 17Z" fill="#0A0A0A"/>
<path d="M31.1675 17C31.1675 18.5648 29.899 19.8333 28.3343 19.8333C26.7696 19.8333 25.5012 18.5648 25.5012 17C25.5012 15.4352 26.7696 14.1667 28.3343 14.1667C29.899 14.1667 31.1675 15.4352 31.1675 17Z" fill="#0A0A0A"/>
</svg>
